<svg xmlns="http://www.w3.org/2000/svg" version="1.1" xmlns:xlink="http://www.w3.org/1999/xlink" xmlns:svgjs="http://svgjs.dev/svgjs" width="2000" height="1247" viewBox="0 0 2000 1247"><g transform="matrix(1,0,0,1,-1.2121212121212466,0.504858299595071)"><svg viewBox="0 0 396 247" data-background-color="#ffffff" preserveAspectRatio="xMidYMid meet" height="1247" width="2000" xmlns="http://www.w3.org/2000/svg" xmlns:xlink="http://www.w3.org/1999/xlink"><g id="tight-bounds" transform="matrix(1,0,0,1,0.2400000000000091,-0.09999999999999432)"><svg viewBox="0 0 395.52 247.2" height="247.2" width="395.52"><g><svg></svg></g><g><svg viewBox="0 0 395.52 247.2" height="247.2" width="395.52"><g transform="matrix(1,0,0,1,75.54432,108.8080426475149)"><svg viewBox="0 0 244.43135999999998 29.58391470497021" height="29.58391470497021" width="244.43135999999998"><g><svg viewBox="0 0 244.43135999999998 29.58391470497021" height="29.58391470497021" width="244.43135999999998"><g><svg viewBox="0 0 244.43135999999998 29.58391470497021" height="29.58391470497021" width="244.43135999999998"><g><svg viewBox="0 0 244.43135999999998 29.58391470497021" height="29.58391470497021" width="244.43135999999998"><g id="textblocktransform"><svg viewBox="0 0 244.43135999999998 29.58391470497021" height="29.58391470497021" width="244.43135999999998" id="textblock"><g><svg viewBox="0 0 244.43135999999998 29.58391470497021" height="29.58391470497021" width="244.43135999999998"><g transform="matrix(1,0,0,1,0,0)"><svg width="244.43135999999998" viewBox="3.25 -35.45 299.12 36.21" height="29.58391470497021" data-palette-color="#2a2c35"><path d="M10.25-13.99L10.25 0 3.25 0 3.25-35.01 27.76-35.01 27.76-28 10.25-28 10.25-21 20.75-21 20.75-13.99 10.25-13.99ZM64.89-17.36L64.89-17.36Q64.89-14.87 64.24-12.56 63.6-10.25 62.42-8.24 61.25-6.23 59.59-4.57 57.93-2.91 55.93-1.72 53.93-0.54 51.61 0.11 49.29 0.76 46.8 0.76L46.8 0.76Q44.31 0.76 42 0.11 39.69-0.54 37.68-1.72 35.67-2.91 34.01-4.57 32.35-6.23 31.16-8.24 29.98-10.25 29.33-12.56 28.68-14.87 28.68-17.36L28.68-17.36Q28.68-19.85 29.33-22.17 29.98-24.49 31.16-26.49 32.35-28.49 34.01-30.15 35.67-31.81 37.68-32.98 39.69-34.16 42-34.8 44.31-35.45 46.8-35.45L46.8-35.45Q49.29-35.45 51.61-34.8 53.93-34.16 55.93-32.98 57.93-31.81 59.59-30.15 61.25-28.49 62.42-26.49 63.6-24.49 64.24-22.17 64.89-19.85 64.89-17.36ZM57.93-17.36L57.93-17.36Q57.93-19.65 57.05-21.69 56.17-23.73 54.67-25.23 53.17-26.73 51.13-27.61 49.09-28.49 46.8-28.49L46.8-28.49Q44.48-28.49 42.45-27.61 40.43-26.73 38.91-25.23 37.4-23.73 36.52-21.69 35.64-19.65 35.64-17.36L35.64-17.36Q35.64-15.06 36.52-13.05 37.4-11.04 38.91-9.52 40.43-8.01 42.45-7.13 44.48-6.25 46.8-6.25L46.8-6.25Q49.09-6.25 51.13-7.13 53.17-8.01 54.67-9.52 56.17-11.04 57.05-13.05 57.93-15.06 57.93-17.36ZM83.49-28L76.48-28 76.48-13.99 83.49-13.99Q84.93-13.99 86.2-14.54 87.47-15.09 88.42-16.04 89.37-16.99 89.92-18.27 90.47-19.56 90.47-21L90.47-21Q90.47-22.44 89.92-23.72 89.37-25 88.42-25.95 87.47-26.9 86.2-27.45 84.93-28 83.49-28L83.49-28ZM76.48-7.01L76.48 0 69.48 0 69.48-35.01 83.49-35.01Q85.42-35.01 87.2-34.51 88.98-34.01 90.53-33.09 92.08-32.18 93.37-30.9 94.65-29.61 95.56-28.05 96.48-26.49 96.98-24.71 97.48-22.92 97.48-21L97.48-21Q97.48-19.19 97.03-17.48 96.58-15.77 95.73-14.23 94.89-12.7 93.67-11.4 92.45-10.11 90.94-9.16L90.94-9.16 94.82 0 87.37 0 84.32-7.06 76.48-7.01ZM144.06-35.01L144.06 0 136.56 0 123.06-23.05 123.06 0 116.05 0 116.05-35.01 123.55-35.01 137.05-11.94 137.05-35.01 144.06-35.01ZM157.14-13.99L171.15-13.99 171.15-21Q171.15-22.44 170.61-23.72 170.06-25 169.1-25.95 168.15-26.9 166.87-27.45 165.59-28 164.15-28L164.15-28Q162.71-28 161.43-27.45 160.14-26.9 159.19-25.95 158.24-25 157.69-23.72 157.14-22.44 157.14-21L157.14-21 157.14-13.99ZM178.16-21L178.16 0 171.15 0 171.15-7.01 157.14-7.01 157.14 0 150.16 0 150.16-21Q150.16-23.9 151.26-26.45 152.36-29 154.25-30.91 156.14-32.81 158.69-33.91 161.24-35.01 164.15-35.01L164.15-35.01Q167.05-35.01 169.6-33.91 172.16-32.81 174.06-30.91 175.96-29 177.06-26.45 178.16-23.9 178.16-21L178.16-21ZM197.89-28L197.89 0 190.9 0 190.9-28 180.38-28 180.38-35.01 208.38-35.01 208.38-28 197.89-28ZM239.7-35.01L239.7-13.99Q239.7-11.08 238.61-8.53 237.51-5.98 235.6-4.09 233.7-2.2 231.15-1.1 228.6 0 225.69 0L225.69 0Q222.79 0 220.23-1.1 217.68-2.2 215.79-4.09 213.9-5.98 212.8-8.53 211.7-11.08 211.7-13.99L211.7-13.99 211.7-35.01 218.68-35.01 218.68-13.99Q218.68-12.55 219.23-11.28 219.78-10.01 220.73-9.06 221.69-8.11 222.97-7.56 224.25-7.01 225.69-7.01L225.69-7.01Q227.13-7.01 228.41-7.56 229.69-8.11 230.65-9.06 231.6-10.01 232.15-11.28 232.7-12.55 232.7-13.99L232.7-13.99 232.7-35.01 239.7-35.01ZM259.79-28L252.79-28 252.79-13.99 259.79-13.99Q261.23-13.99 262.5-14.54 263.77-15.09 264.73-16.04 265.68-16.99 266.23-18.27 266.78-19.56 266.78-21L266.78-21Q266.78-22.44 266.23-23.72 265.68-25 264.73-25.95 263.77-26.9 262.5-27.45 261.23-28 259.79-28L259.79-28ZM252.79-7.01L252.79 0 245.78 0 245.78-35.01 259.79-35.01Q261.72-35.01 263.51-34.51 265.29-34.01 266.84-33.09 268.39-32.18 269.67-30.9 270.95-29.61 271.87-28.05 272.78-26.49 273.28-24.71 273.78-22.92 273.78-21L273.78-21Q273.78-19.19 273.33-17.48 272.88-15.77 272.04-14.23 271.2-12.7 269.98-11.4 268.75-10.11 267.24-9.16L267.24-9.16 271.12 0 263.68 0 260.62-7.06 252.79-7.01ZM302.37-7.01L302.37 0 278.37 0 278.37-35.01 302.37-35.01 302.37-28 285.38-28 285.38-21 296.88-21 296.88-13.99 285.38-13.99 285.38-7.01 302.37-7.01Z" opacity="1" transform="matrix(1,0,0,1,0,0)" fill="#2a2c35" class="wordmark-text-0" data-fill-palette-color="primary" id="text-0"></path></svg></g></svg></g></svg></g></svg></g></svg></g></svg></g></svg></g><path d="M175.422 102.808L175.422 38.6 5.422 38.6 5.422 208.6 175.422 208.6 175.422 144.392 172.755 144.392 172.755 205.933 8.089 205.933 8.089 41.267 172.755 41.267 172.755 102.808Z" fill="#2a2c35" stroke="transparent" data-fill-palette-color="tertiary"></path></svg></g><defs></defs></svg><rect width="395.52" height="247.2" fill="none" stroke="none" visibility="hidden"></rect></g></svg></g></svg>